<svg width="74" height="44" fill="none" xmlns="http://www.w3.org/2000/svg"><path d="M20.719 15.981c0 .906.098 1.64.269 2.178.196.539.44 1.126.782 1.762.123.196.172.392.172.563 0 .245-.147.49-.465.734l-1.54 1.028c-.22.147-.44.22-.636.22-.245 0-.49-.122-.734-.342a7.581 7.581 0 0 1-.88-1.15 18.979 18.979 0 0 1-.758-1.444c-1.907 2.251-4.304 3.377-7.19 3.377-2.053 0-3.691-.587-4.89-1.762-1.198-1.175-1.809-2.741-1.809-4.699 0-2.08.734-3.769 2.225-5.041 1.492-1.273 3.472-1.91 5.991-1.91.831 0 1.687.074 2.592.196.905.123 1.834.319 2.812.539V8.443c0-1.86-.391-3.157-1.15-3.915-.782-.76-2.102-1.126-3.985-1.126-.856 0-1.736.098-2.64.318-.906.22-1.786.49-2.642.832-.391.171-.684.27-.856.318a1.499 1.499 0 0 1-.39.074c-.343 0-.514-.245-.514-.759v-1.2c0-.39.049-.684.17-.856.123-.171.343-.342.685-.514.856-.44 1.883-.807 3.081-1.101C9.618.196 10.89.049 12.234.049c2.91 0 5.037.66 6.407 1.982 1.345 1.322 2.03 3.329 2.03 6.02v7.93h.048zm-9.928 3.72c.807 0 1.639-.147 2.519-.44.88-.294 1.663-.832 2.323-1.567.391-.465.685-.979.831-1.566a8.794 8.794 0 0 0 .245-2.13v-1.027a20.407 20.407 0 0 0-2.25-.416 18.409 18.409 0 0 0-2.298-.147c-1.639 0-2.837.318-3.644.979-.807.66-1.198 1.59-1.198 2.814 0 1.15.294 2.007.905 2.595.587.611 1.443.905 2.567.905zm19.636 2.643c-.44 0-.734-.073-.93-.245-.195-.146-.366-.489-.513-.954L23.238 2.227c-.147-.49-.22-.808-.22-.979 0-.391.195-.612.586-.612h2.397c.464 0 .782.074.953.245.196.147.343.49.49.955l4.108 16.2 3.814-16.2c.122-.49.269-.808.465-.955.195-.147.538-.245.978-.245h1.956c.465 0 .782.074.978.245.196.147.367.49.465.955l3.863 16.397 4.23-16.397c.147-.49.318-.808.49-.955.195-.147.513-.245.953-.245h2.274c.391 0 .611.196.611.612 0 .123-.024.245-.048.392a3.48 3.48 0 0 1-.172.612l-5.893 18.917c-.146.49-.317.808-.513.955-.196.147-.514.245-.93.245h-2.102c-.465 0-.783-.074-.978-.245-.196-.171-.367-.49-.465-.979L37.738 5.36l-3.766 15.76c-.122.49-.269.808-.464.98-.196.17-.538.244-.978.244h-2.103zm31.421.661c-1.271 0-2.543-.147-3.766-.44-1.222-.294-2.176-.612-2.812-.98-.39-.22-.66-.464-.758-.685a1.729 1.729 0 0 1-.146-.685v-1.248c0-.514.195-.759.562-.759.147 0 .293.025.44.074.147.049.367.146.611.244a13.32 13.32 0 0 0 2.69.857c.978.196 1.932.294 2.91.294 1.54 0 2.739-.27 3.57-.808.832-.538 1.272-1.322 1.272-2.325 0-.685-.22-1.248-.66-1.713-.44-.465-1.272-.881-2.47-1.273l-3.546-1.101c-1.785-.563-3.105-1.395-3.912-2.496-.807-1.077-1.223-2.276-1.223-3.549 0-1.028.22-1.933.66-2.717a6.29 6.29 0 0 1 1.76-2.006c.734-.563 1.566-.98 2.544-1.273C60.552.122 61.579 0 62.654 0c.539 0 1.101.024 1.64.098.562.073 1.075.171 1.589.27.489.121.953.244 1.393.39.44.148.783.294 1.027.441.343.196.587.392.734.612.147.196.22.465.22.808v1.15c0 .514-.196.783-.562.783-.196 0-.514-.098-.93-.294-1.393-.636-2.958-.954-4.694-.954-1.394 0-2.494.22-3.252.685-.759.465-1.15 1.175-1.15 2.178 0 .686.245 1.273.734 1.738.489.465 1.394.93 2.69 1.346l3.472 1.101c1.76.563 3.032 1.346 3.79 2.35.758 1.003 1.125 2.153 1.125 3.426 0 1.052-.22 2.007-.636 2.839a6.58 6.58 0 0 1-1.785 2.154c-.758.611-1.663 1.052-2.714 1.37-1.1.343-2.25.514-3.497.514z" fill="#252F3E"/><path fill-rule="evenodd" clip-rule="evenodd" d="M66.47 34.893c-8.045 5.947-19.734 9.104-29.783 9.104-14.085 0-26.776-5.213-36.361-13.877-.758-.685-.074-1.615.831-1.076 10.368 6.02 23.157 9.667 36.385 9.667 8.925 0 18.73-1.86 27.754-5.678 1.345-.612 2.494.88 1.173 1.86z" fill="#F90"/><path fill-rule="evenodd" clip-rule="evenodd" d="M69.82 31.078c-1.027-1.322-6.798-.636-9.414-.318-.783.098-.905-.588-.196-1.102 4.597-3.23 12.153-2.3 13.033-1.223.88 1.101-.244 8.663-4.548 12.285-.66.563-1.296.27-1.003-.465.978-2.422 3.155-7.88 2.128-9.177z" fill="#F90"/></svg>