<svg width="122" height="21" fill="none" xmlns="http://www.w3.org/2000/svg"><path d="M121.587 5.997c-.652-1.181-2.056-2.077-3.582-2.077-1.342 0-2.522.55-2.522 1.974 0 1.2 1.486 2.014 3.032 3.012 1.688 1.058 3.439 2.36 3.439 4.62 0 2.95-2.869 4.76-6.186 4.76-1.364 0-2.787-.264-4.395-.874l.264-3.928c.774 1.568 2.219 2.808 4.354 2.808 1.649 0 2.869-.793 2.869-2.177 0-1.18-.998-1.912-2.217-2.645-2.565-1.546-4.192-2.788-4.192-5.026 0-3.358 2.808-4.477 5.717-4.477 1.689 0 2.748.305 3.825.305l-.406 3.725zm-14.223 3.519a25.915 25.915 0 0 0-1.12 2.056c-.243 1.16-.366 2.707-.366 4.415 0 .712.123 1.668.448 1.994h-4.252c.751-.712 1.058-5.086 1.018-6.47-.57-1.973-1.345-3.866-2.524-6.166-.752-1.444-1.628-2.809-2.177-3.073.956-.08 2.176-.142 2.767-.142 1.058 0 1.344.142 1.995 1.567 1.016 2.3 1.769 4.028 2.217 5.311 1.079-1.69 1.831-2.849 2.808-4.436.244-.387.448-.875.448-1.343 0-.367-.062-.773-.224-.957h4.212c-.814.184-4.477 5.943-5.25 7.244zm-14.793-3.56l-2.522 5.473h4.11L92.57 5.957zm4.945 12.167c-1.344 0-1.445-.04-2.524-3.743l-.386-1.364c-.65.305-1.811.448-3.662.448h-1.872l-.326.691c-.468 1.04-1.099 2.258-1.099 3.115 0 .203.02.427.102.712H76.64c.631-.712.835-3.011 1.14-7.184l.06-.996c.163-2.381.287-4.212.266-5.494-.02-1.057-.123-1.73-.407-2.034h4.294c-.612.468-.836 2.99-1.12 7.163l-.082.996c-.102 1.547-.305 3.134-.305 4.68 0 .712.285.875 1.019.875 2.603 0 3.255-.061 4.434-.855.732-1.343 1.568-3.033 2.38-4.782l1.101-2.34c1.037-2.198 2.054-4.437 2.054-4.863 0-.306-.081-.59-.202-.876h3.418s1.383 5.129 1.688 6.227l.671 2.483c1.16 4.171 1.893 6.206 2.87 7-.816.101-1.975.141-2.402.141zm-27.693.164c-4.05 0-6.39-3.337-6.39-7.081 0-5.209 2.828-9.24 8.22-9.24 1.69 0 2.484.306 3.846.306l-.406 4.01c-.774-1.405-2.036-2.362-3.724-2.362-3.357 0-4.72 3.623-4.72 6.736 0 3.378 1.892 5.229 4.415 5.229 1.363 0 2.563-.367 4.578-1.77-.813 2.605-2.706 4.172-5.819 4.172zM55.783 4.185c-.386 0-.855 0-1.22.041-.123.671-.225 1.831-.367 3.703l-.082 1.1c.205.04.468.062.713.062 1.952 0 3.296-1.182 3.296-2.971 0-1.223-.854-1.935-2.34-1.935zm5.676 14.468c-1.159 0-1.444-.184-1.83-.713l-4.396-6.105c-.346-.467-.61-.854-1.16-.854h-.101l-.08 1.18c-.103 1.608-.164 2.89-.164 3.847.02 1.058.142 1.708.428 1.973h-4.253c.61-.55.833-2.38 1.18-7.183l.06-.997c.164-2.36.286-4.192.265-5.473-.02-1.12-.142-1.812-.448-2.056h5.799c1.892 0 4.497.327 4.497 3.399 0 2.522-1.69 3.906-3.784 4.557.203.184.569.652.793.937l3.194 4.232c1.995 2.625 2.157 2.747 2.87 3.113-.896.102-2.095.143-2.87.143zM41.642 5.957l-2.545 5.472h4.13l-1.585-5.472zm4.944 12.166c-1.342 0-1.444-.04-2.523-3.743l-.386-1.364c-.653.305-1.812.448-3.664.448h-1.872l-.325.691c-.326.734-1.12 2.24-1.1 3.115 0 .203.021.407.103.712h-3.764c1.078-1.078 2.442-3.581 4.334-7.63l1.1-2.34c.995-2.116 2.054-4.517 2.054-4.864 0-.306-.08-.59-.203-.875h3.419s.894 3.398 1.688 6.226l.671 2.483c1.16 4.172 1.893 6.206 2.87 7a25.24 25.24 0 0 1-2.402.141zM27.214 4.165c-.305 0-.712 0-1.098.041a41.987 41.987 0 0 0-.346 3.316s-.061.997-.061.956h.407c1.994 0 3.826-.691 3.826-2.521 0-1.06-.876-1.792-2.728-1.792zm-.508 6.226h-1.119l-.162 2.32a45.897 45.897 0 0 0-.143 2.89c0 .142.448.447 1.505.447 2.198 0 3.643-1.098 3.643-2.91 0-2.014-1.649-2.747-3.724-2.747zm.244 7.59h-5.494c.692-.611.876-2.991 1.18-7.183l.062-.976c.163-2.381.285-4.213.264-5.494-.02-1.1-.142-1.812-.448-2.056h6.145c1.465 0 4.396.082 4.396 3.134 0 2.035-1.893 3.296-3.622 3.745 2.442.244 4.273 1.424 4.273 3.947 0 2.726-2.564 4.883-6.756 4.883zM9.1.073c-.545 0-.658.095-.834.292A3.332 3.332 0 0 0 8.047.36c-.419 0-.957.062-1.416.369-.443.293-.654.81-.418 1.19 0 0 .159-.233.68-.233.073 0 .154.008.24.015.721.086 1.254.465 1.19 1.466-.058 1-.433 2.117-1.968 2.13 0 0-.198 0-.409-.02-.714-.078-.94-.527-.94-.527s.618-.167.624-.951c-.006-.533-.47-1.021-1.14-1.218a2.543 2.543 0 0 0-.71-.096c-.79 0-1.677.331-2.275 1.112C.149 5.386.039 7.994.37 10.42c.333 2.431 1.875 4.683 1.92 4.745.033.043.062.066.096.066a.085.085 0 0 0 .053-.022c.666-.647 1.3-1.53 1.573-2.12.29.231.138.724-.021 1.25-.152.539-.522 1.253-.655 1.484-.13.225-.302.487-.07.624a.17.17 0 0 0 .09.022c.299 0 1.001-.52 1.785-1.566a12.075 12.075 0 0 0 1.323-2.22c.064.015.172.124.154.42-.012.3-.321 1.419-.923 2.46-.608 1.04-1.17 1.691-1.283 1.84-.07.085-.01.139.034.174.045.03 1.12 1.034 2.684 1.883 1.852.987 2.673 1.164 2.673 1.164s.82-.173 2.671-1.159c1.563-.85 2.643-1.859 2.683-1.893.046-.03.103-.08.035-.174-.107-.141-.67-.795-1.278-1.836-.6-1.034-.92-2.16-.925-2.456-.012-.3.088-.398.15-.423 0 0 .45 1.05 1.327 2.22.788 1.046 1.484 1.566 1.784 1.566a.181.181 0 0 0 .093-.023c.226-.137.058-.402-.074-.625-.123-.23-.498-.94-.657-1.482-.153-.532-.311-1.025-.015-1.252.272.591.903 1.48 1.57 2.116a.081.081 0 0 0 .058.028c.03 0 .061-.023.089-.063.049-.066 1.594-2.314 1.924-4.75.331-2.43.222-5.034-1.135-6.824-.594-.783-1.487-1.115-2.282-1.115a2.55 2.55 0 0 0-.702.094c-.675.203-1.138.695-1.134 1.223 0 .784.62.952.62.952s-.207.437-.947.526a3.28 3.28 0 0 1-.4.025c-.557 0-1.026-.177-1.458-.787-.42-.587-.405-1.797-.43-2.2-.019-.41-.106-1.328-.537-1.702C10.404.226 9.882.097 9.23.07c-.048.002-.09.002-.13.002z" fill="#000"/></svg>
