<svg width="72" height="72" fill="none" xmlns="http://www.w3.org/2000/svg"><rect width="72" height="72" rx="16" fill="url(#paint0_linear)"/><path d="M57.875 32.5v1.75M57.875 32.5v1.75M58.75 33.375H57M22.438 15v2.625M23.75 16.313h-2.625M20.25 53.5V57M22 55.25h-3.5" stroke="#EAEAEA" stroke-miterlimit="10" stroke-linecap="round" stroke-linejoin="round"/><path d="M20.25 26.909V45.09L36 54.182l15.75-9.09V26.908L36 17.817 20.25 26.91z" stroke="#EAEAEA" stroke-width="1.5" stroke-miterlimit="10" stroke-linecap="round" stroke-linejoin="round"/><path d="M42.125 34.25h-12.25V43h12.25v-8.75zM40.375 34.25h-8.75v-2.625A4.377 4.377 0 0 1 36 27.25a4.377 4.377 0 0 1 4.375 4.375v2.625z" stroke="#EAEAEA" stroke-width=".75" stroke-miterlimit="10" stroke-linecap="round" stroke-linejoin="round"/><defs><linearGradient id="paint0_linear" x1="0" y1="0" x2="72" y2="66.375" gradientUnits="userSpaceOnUse"><stop stop-color="#6A6D7A"/><stop offset="1" stop-color="#373942"/></linearGradient></defs></svg>