<svg width="72" height="72" fill="none" xmlns="http://www.w3.org/2000/svg"><rect width="72" height="72" rx="16" fill="url(#paint0_linear)"/><path d="M36 43.875a3.5 3.5 0 1 0 0-7 3.5 3.5 0 0 0 0 7zM51.75 53.5a3.5 3.5 0 1 0 0-7 3.5 3.5 0 0 0 0 7zM20.25 53.5a3.5 3.5 0 1 0 0-7 3.5 3.5 0 0 0 0 7zM36 25.5a3.5 3.5 0 1 0 0-7 3.5 3.5 0 0 0 0 7z" stroke="#EAEAEA" stroke-width="1.5" stroke-miterlimit="10" stroke-linecap="round" stroke-linejoin="round"/><path d="M21.956 46.964l12.338-21.928M37.706 25.036l12.338 21.928M48.25 50h-24.5M23.225 48.18l9.8-5.985M36 36.875V25.5M48.775 48.18l-9.8-5.985" stroke="#EAEAEA" stroke-width=".75" stroke-miterlimit="10" stroke-linecap="round" stroke-linejoin="round"/><path d="M19.813 22.438v1.75M19.813 22.438v1.75M20.688 23.313h-1.75M39.063 55.25v2.625M40.375 56.563H37.75M53.063 31.188v3.5M54.813 32.938h-3.5" stroke="#EAEAEA" stroke-miterlimit="10" stroke-linecap="round" stroke-linejoin="round"/><defs><linearGradient id="paint0_linear" x1="0" y1="0" x2="72" y2="72" gradientUnits="userSpaceOnUse"><stop stop-color="#CA2171"/><stop offset="1" stop-color="#8E134A"/></linearGradient></defs></svg>