<svg width="63" height="21" fill="none" xmlns="http://www.w3.org/2000/svg"><path fill-rule="evenodd" clip-rule="evenodd" d="M9.949 6.546H6.764c-1.117 0-1.678.301-1.678.301V.138H.122v20.536h4.964v-8.287c0-.732.596-1.326 1.33-1.326h2.89c.735 0 1.33.594 1.33 1.326v8.287H15.6v-8.928c0-3.755-2.51-5.2-5.652-5.2zm47.724 0v8.286c0 .734-.595 1.328-1.33 1.328h-2.888c-.736 0-1.33-.594-1.33-1.328V6.546h-4.967v8.7c0 3.555 2.282 5.428 5.654 5.428h4.862v-.026c3.105 0 4.965-2.203 4.965-5.403V6.546h-4.966zm-28.008 8.286c0 .734-.595 1.328-1.33 1.328h-2.89c-.735 0-1.33-.594-1.33-1.328V6.546H19.15v8.7c0 3.555 2.282 5.428 5.654 5.428h4.861v-.026c3.106 0 4.965-2.203 4.965-5.403V6.546h-4.965v8.286zm8.75 5.842h4.966V.138h-4.966v20.536z" fill="#000"/></svg>