<?xml version="1.0" encoding="UTF-8" standalone="no"?>
<svg
   xmlns:dc="http://purl.org/dc/elements/1.1/"
   xmlns:cc="http://creativecommons.org/ns#"
   xmlns:rdf="http://www.w3.org/1999/02/22-rdf-syntax-ns#"
   xmlns:svg="http://www.w3.org/2000/svg"
   xmlns="http://www.w3.org/2000/svg"
   xmlns:xlink="http://www.w3.org/1999/xlink"
   xmlns:sodipodi="http://sodipodi.sourceforge.net/DTD/sodipodi-0.dtd"
   xmlns:inkscape="http://www.inkscape.org/namespaces/inkscape"
   width="72"
   height="72"
   fill="none"
   version="1.1"
   id="svg17"
   sodipodi:docname="home-solution-terraform.svg"
   inkscape:version="0.92.4 (5da689c313, 2019-01-14)">
  <metadata
     id="metadata21">
    <rdf:RDF>
      <cc:Work
         rdf:about="">
        <dc:format>image/svg+xml</dc:format>
        <dc:type
           rdf:resource="http://purl.org/dc/dcmitype/StillImage" />
        <dc:title></dc:title>
      </cc:Work>
    </rdf:RDF>
  </metadata>
  <sodipodi:namedview
     pagecolor="#ffffff"
     bordercolor="#666666"
     borderopacity="1"
     objecttolerance="10"
     gridtolerance="10"
     guidetolerance="10"
     inkscape:pageopacity="0"
     inkscape:pageshadow="2"
     inkscape:window-width="2554"
     inkscape:window-height="1434"
     id="namedview19"
     showgrid="true"
     inkscape:zoom="6.5555556"
     inkscape:cx="53.22818"
     inkscape:cy="21.227531"
     inkscape:window-x="0"
     inkscape:window-y="0"
     inkscape:window-maximized="0"
     inkscape:current-layer="text843">
    <inkscape:grid
       type="xygrid"
       id="grid831" />
  </sodipodi:namedview>
  <defs
     id="defs15">
    <linearGradient
       inkscape:collect="always"
       id="linearGradient866">
      <stop
         style="stop-color:#666666;stop-opacity:1"
         offset="0"
         id="stop862" />
      <stop
         style="stop-color:#000000;stop-opacity:1"
         offset="1"
         id="stop864" />
    </linearGradient>
    <linearGradient
       id="paint0_linear"
       x1="0"
       y1="0"
       x2="72"
       y2="72"
       gradientUnits="userSpaceOnUse">
      <stop
         stop-color="#CA2171"
         id="stop10" />
      <stop
         offset="1"
         stop-color="#8E134A"
         id="stop12" />
    </linearGradient>
    <linearGradient
       inkscape:collect="always"
       xlink:href="#linearGradient866"
       id="linearGradient868"
       x1="10"
       y1="7"
       x2="55"
       y2="60.169491"
       gradientUnits="userSpaceOnUse" />
  </defs>
  <rect
     style="fill:url(#linearGradient868);fill-opacity:1;stroke:none;stroke-width:3;stroke-linecap:butt;stroke-linejoin:miter;stroke-miterlimit:4;stroke-dasharray:none;stroke-dashoffset:272.12597656;stroke-opacity:1;paint-order:normal"
     id="rect835"
     width="72"
     height="72"
     x="0"
     y="0"
     rx="20" />
  <g
     aria-label=""
     style="font-style:normal;font-variant:normal;font-weight:normal;font-stretch:normal;font-size:26.66666603px;line-height:20px;font-family:'Font Awesome 5 Brands';-inkscape-font-specification:'Font Awesome 5 Brands';font-variant-ligatures:normal;font-variant-caps:normal;font-variant-numeric:normal;text-align:start;letter-spacing:0px;word-spacing:0px;writing-mode:lr-tb;text-anchor:start;fill:#000000;fill-opacity:1;stroke:none"
     id="text843">
    <path
       d="m 19.333334,36 v 6.666667 c 0,0.9375 0.729167,1.666666 1.666667,1.666666 h 1.666666 v -9.999999 h -1.666666 c -0.9375,0 -1.666667,0.78125 -1.666667,1.666666 z M 43.5,27.666667 h -5.833333 v -3.333333 c 0,-0.885417 -0.78125,-1.666667 -1.666667,-1.666667 -0.9375,0 -1.666666,0.78125 -1.666666,1.666667 v 3.333333 H 28.5 c -2.34375,0 -4.166666,1.875 -4.166666,4.166667 V 46 c 0,1.875 1.458333,3.333333 3.333333,3.333333 H 44.333333 C 46.15625,49.333333 47.666667,47.875 47.666667,46 V 31.833334 c 0,-2.291667 -1.875,-4.166667 -4.166667,-4.166667 z M 32.666667,44.333333 h -3.333333 v -1.666666 h 3.333333 z M 31,38.083334 c -1.197916,0 -2.083333,-0.885417 -2.083333,-2.083334 0,-1.145833 0.885417,-2.083333 2.083333,-2.083333 1.145834,0 2.083334,0.9375 2.083334,2.083333 0,1.197917 -0.9375,2.083334 -2.083334,2.083334 z m 6.666667,6.249999 h -3.333333 v -1.666666 h 3.333333 z m 5,0 h -3.333334 v -1.666666 h 3.333334 z M 41,38.083334 c -1.197917,0 -2.083333,-0.885417 -2.083333,-2.083334 0,-1.145833 0.885416,-2.083333 2.083333,-2.083333 1.145833,0 2.083333,0.9375 2.083333,2.083333 0,1.197917 -0.9375,2.083334 -2.083333,2.083334 z m 10,-3.75 h -1.666667 v 9.999999 H 51 c 0.885417,0 1.666667,-0.729166 1.666667,-1.666666 V 36 c 0,-0.885416 -0.78125,-1.666666 -1.666667,-1.666666 z"
       style="font-style:normal;font-variant:normal;font-weight:normal;font-stretch:normal;font-family:'Font Awesome 5 Free';-inkscape-font-specification:'Font Awesome 5 Free';fill:#ffffff"
       id="path952" />
  </g>
</svg>
