<?xml version="1.0" encoding="UTF-8" standalone="no"?>
<svg
   xmlns:dc="http://purl.org/dc/elements/1.1/"
   xmlns:cc="http://creativecommons.org/ns#"
   xmlns:rdf="http://www.w3.org/1999/02/22-rdf-syntax-ns#"
   xmlns:svg="http://www.w3.org/2000/svg"
   xmlns="http://www.w3.org/2000/svg"
   xmlns:xlink="http://www.w3.org/1999/xlink"
   xmlns:sodipodi="http://sodipodi.sourceforge.net/DTD/sodipodi-0.dtd"
   xmlns:inkscape="http://www.inkscape.org/namespaces/inkscape"
   width="72"
   height="72"
   fill="none"
   version="1.1"
   id="svg17"
   sodipodi:docname="home-solution-consul.svg"
   inkscape:version="0.92.4 (5da689c313, 2019-01-14)">
  <metadata
     id="metadata21">
    <rdf:RDF>
      <cc:Work
         rdf:about="">
        <dc:format>image/svg+xml</dc:format>
        <dc:type
           rdf:resource="http://purl.org/dc/dcmitype/StillImage" />
        <dc:title></dc:title>
      </cc:Work>
    </rdf:RDF>
  </metadata>
  <sodipodi:namedview
     pagecolor="#ffffff"
     bordercolor="#666666"
     borderopacity="1"
     objecttolerance="10"
     gridtolerance="10"
     guidetolerance="10"
     inkscape:pageopacity="0"
     inkscape:pageshadow="2"
     inkscape:window-width="2554"
     inkscape:window-height="1434"
     id="namedview19"
     showgrid="true"
     inkscape:zoom="6.5555556"
     inkscape:cx="53.22818"
     inkscape:cy="21.227531"
     inkscape:window-x="0"
     inkscape:window-y="0"
     inkscape:window-maximized="0"
     inkscape:current-layer="svg17">
    <inkscape:grid
       type="xygrid"
       id="grid831" />
  </sodipodi:namedview>
  <defs
     id="defs15">
    <linearGradient
       inkscape:collect="always"
       id="linearGradient866">
      <stop
         style="stop-color:#666666;stop-opacity:1"
         offset="0"
         id="stop862" />
      <stop
         style="stop-color:#000000;stop-opacity:1"
         offset="1"
         id="stop864" />
    </linearGradient>
    <linearGradient
       id="paint0_linear"
       x1="0"
       y1="0"
       x2="72"
       y2="72"
       gradientUnits="userSpaceOnUse">
      <stop
         stop-color="#CA2171"
         id="stop10" />
      <stop
         offset="1"
         stop-color="#8E134A"
         id="stop12" />
    </linearGradient>
    <linearGradient
       inkscape:collect="always"
       xlink:href="#linearGradient866"
       id="linearGradient868"
       x1="10"
       y1="7"
       x2="55"
       y2="60.169491"
       gradientUnits="userSpaceOnUse" />
  </defs>
  <rect
     style="fill:url(#linearGradient868);fill-opacity:1;stroke:none;stroke-width:3;stroke-linecap:butt;stroke-linejoin:miter;stroke-miterlimit:4;stroke-dasharray:none;stroke-dashoffset:272.12597656;stroke-opacity:1;paint-order:normal"
     id="rect835"
     width="72"
     height="72"
     x="0"
     y="0"
     rx="20" />
  <g
     aria-label=""
     style="font-style:normal;font-variant:normal;font-weight:normal;font-stretch:normal;font-size:26.66666603px;line-height:20px;font-family:'Font Awesome 5 Brands';-inkscape-font-specification:'Font Awesome 5 Brands';font-variant-ligatures:normal;font-variant-caps:normal;font-variant-numeric:normal;text-align:start;letter-spacing:0px;word-spacing:0px;writing-mode:lr-tb;text-anchor:start;fill:#000000;fill-opacity:1;stroke:none"
     id="text843">
    <path
       d="M 52.666667,36.416667 V 35.583334 C 52.666667,35.166667 52.25,34.75 51.833333,34.75 H 37.25 V 32.666667 H 41 c 0.885417,0 1.666667,-0.729167 1.666667,-1.666667 v -6.666666 c 0,-0.885417 -0.78125,-1.666667 -1.666667,-1.666667 H 31 c -0.9375,0 -1.666666,0.78125 -1.666666,1.666667 V 31 c 0,0.9375 0.729166,1.666667 1.666666,1.666667 h 3.75 V 34.75 H 20.166667 c -0.46875,0 -0.833333,0.416667 -0.833333,0.833334 v 0.833333 c 0,0.46875 0.364583,0.833333 0.833333,0.833333 h 5.416667 v 2.083333 h -2.916667 c -0.9375,0 -1.666666,0.78125 -1.666666,1.666667 v 6.666667 c 0,0.9375 0.729166,1.666666 1.666666,1.666666 H 31 c 0.885417,0 1.666667,-0.729166 1.666667,-1.666666 V 41 c 0,-0.885417 -0.78125,-1.666667 -1.666667,-1.666667 H 28.083334 V 37.25 h 15.833333 v 2.083333 H 41 c -0.9375,0 -1.666667,0.78125 -1.666667,1.666667 v 6.666667 c 0,0.9375 0.729167,1.666666 1.666667,1.666666 h 8.333333 C 50.21875,49.333333 51,48.604167 51,47.666667 V 41 c 0,-0.885417 -0.78125,-1.666667 -1.666667,-1.666667 H 46.416667 V 37.25 h 5.416666 c 0.416667,0 0.833334,-0.364583 0.833334,-0.833333 z m -20,-7.083333 V 26 h 6.666666 v 3.333334 z M 29.333334,46 h -5 v -3.333333 h 5 z m 18.333333,0 h -5 v -3.333333 h 5 z"
       style="font-style:normal;font-variant:normal;font-weight:normal;font-stretch:normal;font-family:'Font Awesome 5 Free';-inkscape-font-specification:'Font Awesome 5 Free';fill:#ffffff"
       id="path859" />
  </g>
</svg>
