<?xml version="1.0" encoding="UTF-8" standalone="no"?>
<svg
   xmlns:dc="http://purl.org/dc/elements/1.1/"
   xmlns:cc="http://creativecommons.org/ns#"
   xmlns:rdf="http://www.w3.org/1999/02/22-rdf-syntax-ns#"
   xmlns:svg="http://www.w3.org/2000/svg"
   xmlns="http://www.w3.org/2000/svg"
   xmlns:sodipodi="http://sodipodi.sourceforge.net/DTD/sodipodi-0.dtd"
   xmlns:inkscape="http://www.inkscape.org/namespaces/inkscape"
   width="63"
   height="21"
   fill="none"
   version="1.1"
   id="svg4"
   sodipodi:docname="hulu-black.svg"
   inkscape:version="0.92.4 (5da689c313, 2019-01-14)">
  <metadata
     id="metadata10">
    <rdf:RDF>
      <cc:Work
         rdf:about="">
        <dc:format>image/svg+xml</dc:format>
        <dc:type
           rdf:resource="http://purl.org/dc/dcmitype/StillImage" />
        <dc:title></dc:title>
      </cc:Work>
    </rdf:RDF>
  </metadata>
  <defs
     id="defs8" />
  <sodipodi:namedview
     pagecolor="#ffffff"
     bordercolor="#666666"
     borderopacity="1"
     objecttolerance="10"
     gridtolerance="10"
     guidetolerance="10"
     inkscape:pageopacity="0"
     inkscape:pageshadow="2"
     inkscape:window-width="2554"
     inkscape:window-height="1434"
     id="namedview6"
     showgrid="true"
     inkscape:snap-text-baseline="true"
     inkscape:zoom="10.126984"
     inkscape:cx="56.878007"
     inkscape:cy="19.89629"
     inkscape:window-x="0"
     inkscape:window-y="0"
     inkscape:window-maximized="0"
     inkscape:current-layer="text819">
    <inkscape:grid
       type="xygrid"
       id="grid821" />
  </sodipodi:namedview>
  <g
     aria-label="hooli"
     style="font-style:normal;font-variant:normal;font-weight:bold;font-stretch:normal;font-size:25.33333397px;line-height:15px;font-family:'ProFont for Powerline';-inkscape-font-specification:'ProFont for Powerline Bold';font-variant-ligatures:normal;font-variant-caps:normal;font-variant-numeric:normal;text-align:start;letter-spacing:0.23px;word-spacing:0px;writing-mode:lr-tb;text-anchor:start;fill:#000000;fill-opacity:1;stroke:none"
     id="text819">
    <path
       d="M 12.611111,20.422222 H 9.4444447 v -6.755555 q 0,-0.717778 -0.4855556,-1.203334 Q 8.4733335,11.977778 7.8611113,11.977778 H 4.1666667 v 8.444444 H 1 V 4.7999996 h 3.1666667 v 4.2222223 h 3.6944446 q 1.9844445,0 3.3566667,1.3933331 1.393333,1.372223 1.393333,3.251112 z"
       style="font-style:normal;font-variant:normal;font-weight:bold;font-stretch:normal;font-family:'ProFont for Powerline';-inkscape-font-specification:'ProFont for Powerline Bold';letter-spacing:0.23px"
       id="path823" />
    <path
       d="m 25.507778,15.777778 q 0,1.878889 -1.393333,3.272222 -1.372223,1.372222 -3.356667,1.372222 h -2.111111 q -1.984445,0 -3.377778,-1.372222 -1.372222,-1.393333 -1.372222,-3.272222 v -2.111111 q 0,-1.878889 1.372222,-3.251112 1.393333,-1.3933331 3.377778,-1.3933331 h 2.111111 q 1.984444,0 3.356667,1.3933331 1.393333,1.372223 1.393333,3.251112 z m -3.166667,0 v -2.111111 q 0,-0.717778 -0.485555,-1.203334 Q 21.37,11.977778 20.757778,11.977778 h -2.111111 q -0.612223,0 -1.097778,0.485555 -0.485556,0.485556 -0.485556,1.203334 v 2.111111 q 0,0.717777 0.485556,1.203333 0.485555,0.485556 1.097778,0.485556 h 2.111111 q 0.612222,0 1.097778,-0.485556 0.485555,-0.485556 0.485555,-1.203333 z"
       style="font-style:normal;font-variant:normal;font-weight:bold;font-stretch:normal;font-family:'ProFont for Powerline';-inkscape-font-specification:'ProFont for Powerline Bold';letter-spacing:0.23px"
       id="path825" />
    <path
       d="m 38.404444,15.777778 q 0,1.878889 -1.393333,3.272222 -1.372222,1.372222 -3.356667,1.372222 h -2.111111 q -1.984444,0 -3.377778,-1.372222 -1.372222,-1.393333 -1.372222,-3.272222 v -2.111111 q 0,-1.878889 1.372222,-3.251112 1.393334,-1.3933331 3.377778,-1.3933331 h 2.111111 q 1.984445,0 3.356667,1.3933331 1.393333,1.372223 1.393333,3.251112 z m -3.166666,0 v -2.111111 q 0,-0.717778 -0.485556,-1.203334 -0.485555,-0.485555 -1.097778,-0.485555 h -2.111111 q -0.612222,0 -1.097778,0.485555 Q 29.96,12.948889 29.96,13.666667 v 2.111111 q 0,0.717777 0.485555,1.203333 0.485556,0.485556 1.097778,0.485556 h 2.111111 q 0.612223,0 1.097778,-0.485556 0.485556,-0.485556 0.485556,-1.203333 z"
       style="font-style:normal;font-variant:normal;font-weight:bold;font-stretch:normal;font-family:'ProFont for Powerline';-inkscape-font-specification:'ProFont for Powerline Bold';letter-spacing:0.23px"
       id="path827" />
    <path
       d="m 49.190003,20.422222 h -7.388889 v -2.955555 h 2.111111 V 7.7555552 H 41.801114 V 4.7999996 h 5.277778 V 17.466667 h 2.111111 z"
       style="font-style:normal;font-variant:normal;font-weight:bold;font-stretch:normal;font-family:'ProFont for Powerline';-inkscape-font-specification:'ProFont for Powerline Bold';letter-spacing:0.23px"
       id="path829" />
    <path
       d="m 59.975555,6.2777774 q 0,0.5911112 -0.443333,1.0344445 -0.443334,0.4433333 -1.14,0.4433333 -0.696667,0 -1.14,-0.4433333 -0.443334,-0.4433333 -0.443334,-1.0344445 0,-0.5911111 0.443334,-1.0344444 0.443333,-0.4433334 1.14,-0.4433334 0.696666,0 1.14,0.4433334 0.443333,0.4433333 0.443333,1.0344444 z m 2.111111,14.1444446 h -7.388889 v -2.955555 h 2.111111 V 11.977778 H 54.697777 V 9.0222219 h 5.277778 v 8.4444451 h 2.111111 z"
       style="font-style:normal;font-variant:normal;font-weight:bold;font-stretch:normal;font-family:'ProFont for Powerline';-inkscape-font-specification:'ProFont for Powerline Bold';letter-spacing:0.23px"
       id="path831" />
  </g>
</svg>
