<?xml version="1.0" encoding="UTF-8" standalone="no"?>
<svg
   xmlns:dc="http://purl.org/dc/elements/1.1/"
   xmlns:cc="http://creativecommons.org/ns#"
   xmlns:rdf="http://www.w3.org/1999/02/22-rdf-syntax-ns#"
   xmlns:svg="http://www.w3.org/2000/svg"
   xmlns="http://www.w3.org/2000/svg"
   xmlns:sodipodi="http://sodipodi.sourceforge.net/DTD/sodipodi-0.dtd"
   xmlns:inkscape="http://www.inkscape.org/namespaces/inkscape"
   width="128"
   height="25"
   fill="none"
   version="1.1"
   id="svg4"
   sodipodi:docname="sap-ariba-black.svg"
   inkscape:version="0.92.4 (5da689c313, 2019-01-14)">
  <metadata
     id="metadata10">
    <rdf:RDF>
      <cc:Work
         rdf:about="">
        <dc:format>image/svg+xml</dc:format>
        <dc:type
           rdf:resource="http://purl.org/dc/dcmitype/StillImage" />
        <dc:title></dc:title>
      </cc:Work>
    </rdf:RDF>
  </metadata>
  <defs
     id="defs8" />
  <sodipodi:namedview
     pagecolor="#ffffff"
     bordercolor="#666666"
     borderopacity="1"
     objecttolerance="10"
     gridtolerance="10"
     guidetolerance="10"
     inkscape:pageopacity="0"
     inkscape:pageshadow="2"
     inkscape:window-width="2554"
     inkscape:window-height="1434"
     id="namedview6"
     showgrid="true"
     inkscape:snap-text-baseline="true"
     inkscape:zoom="14.097941"
     inkscape:cx="123.62451"
     inkscape:cy="5.9091269"
     inkscape:window-x="0"
     inkscape:window-y="0"
     inkscape:window-maximized="0"
     inkscape:current-layer="text825">
    <inkscape:grid
       type="xygrid"
       id="grid821" />
  </sodipodi:namedview>
  <text
     xml:space="preserve"
     style="font-style:normal;font-variant:normal;font-weight:normal;font-stretch:normal;font-size:13.33333302px;line-height:20px;font-family:Exan;-inkscape-font-specification:Exan;font-variant-ligatures:normal;font-variant-caps:normal;font-variant-numeric:normal;text-align:start;letter-spacing:0px;word-spacing:0px;writing-mode:lr-tb;text-anchor:start;fill:#000000;fill-opacity:1;stroke:none"
     x="3.6112852"
     y="15.169279"
     id="text819"><tspan
       sodipodi:role="line"
       id="tspan817"
       x="3.6112852"
       y="29.169279" /></text>
  <g
     aria-label="Acme Industries"
     style="font-style:normal;font-variant:normal;font-weight:normal;font-stretch:normal;font-size:12px;line-height:20px;font-family:Exan;-inkscape-font-specification:Exan;font-variant-ligatures:normal;font-variant-caps:normal;font-variant-numeric:normal;text-align:start;letter-spacing:0px;word-spacing:0px;writing-mode:lr-tb;text-anchor:start;fill:#000000;fill-opacity:1;stroke:none"
     id="text825">
    <path
       d="m 11.744,20 -0.42,-1.188 H 8.168 L 7.736,20 H 4.88 l 3.552,-8.412 h 2.856 L 14.708,20 Z M 8.888,16.82 H 10.64 L 9.776,14.36 Z"
       style="font-style:normal;font-variant:normal;font-weight:900;font-stretch:normal;font-family:Montserrat;-inkscape-font-specification:'Montserrat Heavy'"
       id="path836" />
    <path
       d="m 18.959562,16.148 q -0.264,-0.624 -0.84,-0.624 -0.396,0 -0.635999,0.336 -0.228001,0.324 -0.228001,0.876 0,0.564 0.228001,0.9 0.239999,0.324 0.635999,0.324 0.600001,0 0.804,-0.708 l 2.184,1.008 q -0.36,0.876 -1.187999,1.356 -0.816,0.48 -1.944001,0.48 -1.032,0 -1.812,-0.408 -0.779999,-0.42 -1.211999,-1.176 -0.42,-0.756 -0.42,-1.764 0,-1.02 0.42,-1.788 0.432,-0.78 1.211999,-1.2 0.792,-0.42 1.836,-0.42 1.068,0 1.884,0.504 0.816,0.492 1.224,1.392 z"
       style="font-style:normal;font-variant:normal;font-weight:900;font-stretch:normal;font-family:Montserrat;-inkscape-font-specification:'Montserrat Heavy'"
       id="path838" />
    <path
       d="m 30.666125,13.316 q 0.672,0 1.2,0.312 0.528,0.312 0.816,0.876 0.3,0.564 0.3,1.308 V 20 h -2.7 v -3.408 q 0,-0.408 -0.204,-0.648 -0.204,-0.252 -0.54,-0.252 -0.372,0 -0.6,0.288 -0.228,0.288 -0.228,0.768 V 20 h -2.7 v -3.408 q 0,-0.408 -0.204,-0.648 -0.204,-0.252 -0.54,-0.252 -0.372,0 -0.6,0.288 -0.228,0.288 -0.228,0.768 V 20 h -2.7 v -6.564 h 2.7 v 0.924 q 0.336,-0.504 0.828,-0.768 0.504,-0.276 1.128,-0.276 0.744,0 1.296,0.372 0.564,0.372 0.828,1.032 0.324,-0.672 0.864,-1.032 0.552,-0.372 1.284,-0.372 z"
       style="font-style:normal;font-variant:normal;font-weight:900;font-stretch:normal;font-family:Montserrat;-inkscape-font-specification:'Montserrat Heavy'"
       id="path840" />
    <path
       d="m 37.137125,13.34 q 1.08,0 1.872,0.444 0.792,0.444 1.212,1.272 0.42,0.816 0.42,1.92 0,0.228 -0.012,0.348 h -4.272 q 0.132,0.384 0.408,0.588 0.288,0.192 0.684,0.192 0.708,0 1.332,-0.588 l 1.404,1.38 q -0.528,0.588 -1.284,0.9 -0.744,0.3 -1.692,0.3 -1.104,0 -1.92,-0.408 -0.804,-0.42 -1.236,-1.176 -0.42,-0.756 -0.42,-1.764 0,-1.032 0.432,-1.8 0.432,-0.768 1.224,-1.188 0.804,-0.42 1.848,-0.42 z m 0.792,2.736 q 0.024,-0.408 -0.204,-0.672 -0.216,-0.264 -0.564,-0.264 -0.336,0 -0.564,0.252 -0.216,0.252 -0.3,0.684 z"
       style="font-style:normal;font-variant:normal;font-weight:900;font-stretch:normal;font-family:Montserrat;-inkscape-font-specification:'Montserrat Heavy'"
       id="path842" />
    <path
       d="m 43.803125,11.588 h 2.784 V 20 h -2.784 z"
       style="font-style:normal;font-variant:normal;font-weight:900;font-stretch:normal;font-family:Montserrat;-inkscape-font-specification:'Montserrat Heavy'"
       id="path844" />
    <path
       d="m 52.5395,13.316 q 0.684,0 1.212,0.312 0.54,0.312 0.84,0.876 0.3,0.564 0.3,1.308 V 20 h -2.7 v -3.408 q 0,-0.408 -0.216,-0.648 -0.216,-0.252 -0.564,-0.252 -0.396,0 -0.636,0.288 -0.228,0.288 -0.228,0.768 V 20 h -2.7 v -6.564 h 2.7 v 0.936 q 0.336,-0.516 0.84,-0.78 0.516,-0.276 1.152,-0.276 z"
       style="font-style:normal;font-variant:normal;font-weight:900;font-stretch:normal;font-family:Montserrat;-inkscape-font-specification:'Montserrat Heavy'"
       id="path846" />
    <path
       d="M 62.927188,11.096 V 20 h -2.700001 v -0.66 q -0.647999,0.756 -1.668,0.756 -0.899999,0 -1.584,-0.42 -0.684,-0.42 -1.056,-1.188 -0.372,-0.78 -0.372,-1.812 0,-1.008 0.36,-1.764 0.36,-0.756 1.020001,-1.164 0.671999,-0.408 1.559999,-0.408 0.528,0 0.972,0.204 0.444001,0.192 0.768,0.564 v -3.012 z m -3.672001,6.924 q 0.444,0 0.708001,-0.348 0.263999,-0.348 0.263999,-0.924 0,-0.576 -0.263999,-0.924 -0.264001,-0.348 -0.708001,-0.348 -0.443999,0 -0.72,0.348 -0.264,0.348 -0.264,0.924 0,0.576 0.264,0.924 0.276001,0.348 0.72,0.348 z"
       style="font-style:normal;font-variant:normal;font-weight:900;font-stretch:normal;font-family:Montserrat;-inkscape-font-specification:'Montserrat Heavy'"
       id="path848" />
    <path
       d="M 71.044625,13.436 V 20 h -2.7 v -0.912 q -0.324,0.504 -0.816,0.768 -0.492,0.264 -1.116,0.264 -0.672,0 -1.188,-0.312 -0.516,-0.312 -0.816,-0.876 -0.288,-0.564 -0.288,-1.308 v -4.188 h 2.7 v 3.408 q 0,0.408 0.192,0.66 0.204,0.24 0.528,0.24 0.372,0 0.588,-0.288 0.216,-0.288 0.216,-0.768 v -3.252 z"
       style="font-style:normal;font-variant:normal;font-weight:900;font-stretch:normal;font-family:Montserrat;-inkscape-font-specification:'Montserrat Heavy'"
       id="path850" />
    <path
       d="m 77.211125,15.812 q -1.464,-0.72 -2.22,-0.72 -0.168,0 -0.276,0.06 -0.096,0.06 -0.096,0.156 0,0.144 0.216,0.24 0.216,0.096 0.72,0.228 0.708,0.192 1.212,0.396 0.504,0.204 0.876,0.624 0.384,0.42 0.384,1.092 0,0.672 -0.372,1.176 -0.36,0.504 -1.032,0.78 -0.672,0.276 -1.572,0.276 -1.836,0 -3.204,-0.936 l 0.816,-1.68 q 1.32,0.816 2.424,0.816 0.192,0 0.3,-0.048 0.108,-0.06 0.108,-0.144 0,-0.132 -0.216,-0.216 -0.204,-0.096 -0.672,-0.216 -0.708,-0.18 -1.2,-0.384 -0.492,-0.204 -0.876,-0.624 -0.372,-0.42 -0.372,-1.104 0,-0.684 0.36,-1.188 0.36,-0.516 1.008,-0.792 0.66,-0.288 1.524,-0.288 1.572,0 3.048,0.828 z"
       style="font-style:normal;font-variant:normal;font-weight:900;font-stretch:normal;font-family:Montserrat;-inkscape-font-specification:'Montserrat Heavy'"
       id="path852" />
    <path
       d="m 83.675938,19.712 q -0.324,0.192 -0.852001,0.3 -0.516,0.108 -1.055999,0.108 -1.104,0 -1.776,-0.6 -0.660001,-0.612 -0.660001,-1.632 V 15.5 h -0.899999 v -1.704 h 0.899999 V 11.96 h 2.688 v 1.836 h 1.536 V 15.5 h -1.536 v 1.98 q 0,0.264 0.144001,0.42 0.143999,0.144 0.384,0.132 0.227999,0 0.671999,-0.168 z"
       style="font-style:normal;font-variant:normal;font-weight:900;font-stretch:normal;font-family:Montserrat;-inkscape-font-specification:'Montserrat Heavy'"
       id="path854" />
    <path
       d="m 87.227187,14.396 q 0.348,-0.516 0.852001,-0.792 0.515999,-0.288 1.152,-0.288 v 2.436 q -0.264001,-0.036 -0.516001,-0.036 -0.696,0 -1.092,0.312 -0.396,0.3 -0.396,0.84 V 20 h -2.7 v -6.564 h 2.7 z"
       style="font-style:normal;font-variant:normal;font-weight:900;font-stretch:normal;font-family:Montserrat;-inkscape-font-specification:'Montserrat Heavy'"
       id="path856" />
    <path
       d="m 90.011562,13.436 h 2.7 V 20 h -2.7 z m 1.320001,-3.24 q 0.599999,0 0.983999,0.384 0.384,0.384 0.384,0.984 0,0.6 -0.384,0.984 -0.384,0.384 -0.983999,0.384 -0.600001,0 -0.984001,-0.384 -0.384,-0.384 -0.384,-0.984 0,-0.6 0.384,-0.984 0.384,-0.384 0.984001,-0.384 z"
       style="font-style:normal;font-variant:normal;font-weight:900;font-stretch:normal;font-family:Montserrat;-inkscape-font-specification:'Montserrat Heavy'"
       id="path858" />
    <path
       d="m 97.066812,13.34 q 1.08,0 1.872,0.444 0.792,0.444 1.211998,1.272 0.42,0.816 0.42,1.92 0,0.228 -0.012,0.348 h -4.271998 q 0.132001,0.384 0.408,0.588 0.288,0.192 0.684,0.192 0.708001,0 1.332001,-0.588 l 1.403997,1.38 q -0.527997,0.588 -1.283997,0.9 -0.744,0.3 -1.692001,0.3 -1.104,0 -1.92,-0.408 -0.804,-0.42 -1.236,-1.176 -0.419999,-0.756 -0.419999,-1.764 0,-1.032 0.431999,-1.8 0.432,-0.768 1.224,-1.188 0.804,-0.42 1.848,-0.42 z m 0.792,2.736 q 0.024,-0.408 -0.203999,-0.672 -0.216001,-0.264 -0.564001,-0.264 -0.336,0 -0.563999,0.252 -0.216001,0.252 -0.300001,0.684 z"
       style="font-style:normal;font-variant:normal;font-weight:900;font-stretch:normal;font-family:Montserrat;-inkscape-font-specification:'Montserrat Heavy'"
       id="path860" />
    <path
       d="m 106.25019,15.812 q -1.464,-0.72 -2.22,-0.72 -0.168,0 -0.276,0.06 -0.096,0.06 -0.096,0.156 0,0.144 0.216,0.24 0.216,0.096 0.72,0.228 0.708,0.192 1.212,0.396 0.504,0.204 0.876,0.624 0.384,0.42 0.384,1.092 0,0.672 -0.372,1.176 -0.36,0.504 -1.032,0.78 -0.672,0.276 -1.572,0.276 -1.836,0 -3.204,-0.936 l 0.816,-1.68 q 1.32,0.816 2.424,0.816 0.192,0 0.3,-0.048 0.108,-0.06 0.108,-0.144 0,-0.132 -0.216,-0.216 -0.204,-0.096 -0.672,-0.216 -0.708,-0.18 -1.2,-0.384 -0.492,-0.204 -0.876,-0.624 -0.372,-0.42 -0.372,-1.104 0,-0.684 0.36,-1.188 0.36,-0.516 1.008,-0.792 0.66,-0.288 1.524,-0.288 1.572,0 3.048,0.828 z"
       style="font-style:normal;font-variant:normal;font-weight:900;font-stretch:normal;font-family:Montserrat;-inkscape-font-specification:'Montserrat Heavy'"
       id="path862" />
  </g>
  <path
     style="fill:#000000;fill-opacity:1;stroke:none;stroke-width:3;stroke-linecap:butt;stroke-linejoin:miter;stroke-miterlimit:4;stroke-dasharray:none;stroke-dashoffset:272.12597656;stroke-opacity:1;paint-order:normal"
     d="M 110 4 L 110 8 L 120 8 L 120 16 L 115 16 L 115 10 L 110 10 L 110 20 L 115 20 L 120 20 L 125 20 L 125 4 L 110 4 z "
     id="rect827" />
</svg>
