<?xml version="1.0" encoding="UTF-8" standalone="no"?>
<svg
   xmlns:dc="http://purl.org/dc/elements/1.1/"
   xmlns:cc="http://creativecommons.org/ns#"
   xmlns:rdf="http://www.w3.org/1999/02/22-rdf-syntax-ns#"
   xmlns:svg="http://www.w3.org/2000/svg"
   xmlns="http://www.w3.org/2000/svg"
   xmlns:sodipodi="http://sodipodi.sourceforge.net/DTD/sodipodi-0.dtd"
   xmlns:inkscape="http://www.inkscape.org/namespaces/inkscape"
   width="122"
   height="21"
   fill="none"
   version="1.1"
   id="svg4"
   sodipodi:docname="logo-circleco.svg"
   inkscape:version="0.92.4 (5da689c313, 2019-01-14)">
  <metadata
     id="metadata10">
    <rdf:RDF>
      <cc:Work
         rdf:about="">
        <dc:format>image/svg+xml</dc:format>
        <dc:type
           rdf:resource="http://purl.org/dc/dcmitype/StillImage" />
        <dc:title></dc:title>
      </cc:Work>
    </rdf:RDF>
  </metadata>
  <defs
     id="defs8" />
  <sodipodi:namedview
     pagecolor="#ffffff"
     bordercolor="#666666"
     borderopacity="1"
     objecttolerance="10"
     gridtolerance="10"
     guidetolerance="10"
     inkscape:pageopacity="0"
     inkscape:pageshadow="2"
     inkscape:window-width="2554"
     inkscape:window-height="1434"
     id="namedview6"
     showgrid="true"
     inkscape:snap-text-baseline="true"
     inkscape:snap-bbox="true"
     inkscape:snap-bbox-edge-midpoints="true"
     inkscape:zoom="7.3956414"
     inkscape:cx="35.271"
     inkscape:cy="5.3771121"
     inkscape:window-x="0"
     inkscape:window-y="0"
     inkscape:window-maximized="0"
     inkscape:current-layer="text823">
    <inkscape:grid
       type="xygrid"
       id="grid817" />
  </sodipodi:namedview>
  <ellipse
     style="fill:#000000;fill-opacity:1;stroke:none;stroke-width:3;stroke-linecap:butt;stroke-linejoin:miter;stroke-miterlimit:4;stroke-dasharray:none;stroke-dashoffset:272.12597656;stroke-opacity:1;paint-order:normal"
     id="path819"
     cx="9.5"
     cy="11"
     rx="8.5"
     ry="8" />
  <g
     aria-label="CircleCompany"
     style="font-style:normal;font-variant:normal;font-weight:normal;font-stretch:normal;font-size:16px;line-height:20px;font-family:Montserrat;-inkscape-font-specification:Montserrat;font-variant-ligatures:normal;font-variant-caps:normal;font-variant-numeric:normal;text-align:start;letter-spacing:0px;word-spacing:0px;writing-mode:lr-tb;text-anchor:start;fill:#000000;fill-opacity:1;stroke:none"
     id="text823">
    <path
       d="M 27.242187,13.921875 H 29.0625 q -0.335938,1.59375 -1.4375,2.4375 -1.101563,0.835937 -2.5625,0.835937 -1.34375,0 -2.257813,-0.640625 Q 21.898437,15.90625 21.5,15.15625 21.21875,14.65625 21.109375,14.0625 21,13.46875 21,11.414063 21,9.359375 21.109375,8.765625 21.21875,8.171875 21.5,7.671875 q 0.398437,-0.7421875 1.304687,-1.3984375 0.914063,-0.65625 2.257813,-0.65625 1.617187,0 2.671875,1 1.0625,0.9921875 1.328125,2.375 H 27.242187 Q 27.03125,8.3359375 26.453125,7.84375 25.882812,7.3515625 25.0625,7.3515625 q -0.609375,0 -1.054688,0.25 -0.445312,0.25 -0.703125,0.578125 -0.335937,0.4375 -0.460937,0.9609375 -0.117188,0.5234375 -0.117188,2.273438 0,1.757812 0.117188,2.28125 0.125,0.523437 0.460937,0.945312 0.257813,0.34375 0.703125,0.59375 0.445313,0.242188 1.054688,0.242188 1.4375,0 2.179687,-1.554688 z"
       style="font-style:normal;font-variant:normal;font-weight:normal;font-stretch:normal;font-family:'Alte DIN 1451 Mittelschrift';-inkscape-font-specification:'Alte DIN 1451 Mittelschrift'"
       id="path815" />
    <path
       d="M 30.195312,17.101562 V 8.9921875 h 1.632813 v 8.1093745 z m 0,-9.7499995 V 5.71875 h 1.632813 v 1.6328125 z"
       style="font-style:normal;font-variant:normal;font-weight:normal;font-stretch:normal;font-family:'Alte DIN 1451 Mittelschrift';-inkscape-font-specification:'Alte DIN 1451 Mittelschrift'"
       id="path817" />
    <path
       d="M 33.992187,17.101562 V 8.9921875 H 35.625 V 9.859375 h 0.03125 q 0.757812,-0.9609375 2.109375,-0.9609375 0.890625,0 1.695312,0.625 L 38.28125,10.929688 Q 37.75,10.53125 37.203125,10.53125 q -0.601563,0 -1.09375,0.40625 Q 35.625,11.335938 35.625,12.226563 v 4.874999 z"
       style="font-style:normal;font-variant:normal;font-weight:normal;font-stretch:normal;font-family:'Alte DIN 1451 Mittelschrift';-inkscape-font-specification:'Alte DIN 1451 Mittelschrift'"
       id="path820" />
    <path
       d="m 44.976562,14.71875 1.203125,1.078125 q -0.53125,0.609375 -1.265625,1.007812 -0.726562,0.390625 -1.648437,0.390625 -1.40625,0 -2.546875,-0.953125 -1.132813,-0.960937 -1.132813,-3.187499 0,-2.226563 1.132813,-3.1875005 1.140625,-0.96875 2.546875,-0.96875 0.921875,0 1.648437,0.3984375 0.734375,0.3984375 1.265625,1.007813 L 44.976562,11.375 q -0.6875,-0.84375 -1.648437,-0.84375 -2.109375,0 -2.109375,2.523438 0,2.515625 2.109375,2.515625 0.96875,0 1.648437,-0.851563 z"
       style="font-style:normal;font-variant:normal;font-weight:normal;font-stretch:normal;font-family:'Alte DIN 1451 Mittelschrift';-inkscape-font-specification:'Alte DIN 1451 Mittelschrift'"
       id="path822" />
    <path
       d="M 47.304687,15.140625 V 5.71875 H 48.9375 v 9.289063 q 0,0.5625 0.609375,0.5625 h 0.554687 v 1.531249 h -0.71875 q -0.890625,0 -1.484375,-0.429687 -0.59375,-0.4375 -0.59375,-1.53125 z"
       style="font-style:normal;font-variant:normal;font-weight:normal;font-stretch:normal;font-family:'Alte DIN 1451 Mittelschrift';-inkscape-font-specification:'Alte DIN 1451 Mittelschrift'"
       id="path824" />
    <path
       d="M 57.671875,13.664063 H 52.625 q 0,1 0.539062,1.5 0.546875,0.5 1.390625,0.5 1.007813,0 1.78125,-0.78125 l 1.179688,1.007812 q -0.601563,0.703125 -1.359375,1.007812 -0.75,0.296875 -1.570313,0.296875 -1.25,0 -2.421875,-0.804687 -1.171875,-0.8125 -1.171875,-3.3125 0,-2.367187 1.078125,-3.2734375 1.085938,-0.90625 2.265625,-0.90625 1.335938,0 2.335938,0.9296875 1,0.921875 1,2.492188 z M 52.625,12.320313 h 3.421875 Q 56.007812,11.40625 55.53125,10.921875 55.054687,10.4375 54.335937,10.4375 q -0.726562,0 -1.210937,0.484375 -0.476563,0.484375 -0.5,1.398438 z"
       style="font-style:normal;font-variant:normal;font-weight:normal;font-stretch:normal;font-family:'Alte DIN 1451 Mittelschrift';-inkscape-font-specification:'Alte DIN 1451 Mittelschrift'"
       id="path826" />
    <path
       d="m 65.398437,13.921875 h 1.820313 q -0.335938,1.59375 -1.4375,2.4375 -1.101563,0.835937 -2.5625,0.835937 -1.34375,0 -2.257813,-0.640625 -0.90625,-0.648437 -1.304687,-1.398437 -0.28125,-0.5 -0.390625,-1.09375 -0.109375,-0.59375 -0.109375,-2.648437 0,-2.054688 0.109375,-2.648438 0.109375,-0.59375 0.390625,-1.09375 0.398437,-0.7421875 1.304687,-1.3984375 0.914063,-0.65625 2.257813,-0.65625 1.617187,0 2.671875,1 1.0625,0.9921875 1.328125,2.375 H 65.398437 Q 65.1875,8.3359375 64.609375,7.84375 64.039062,7.3515625 63.21875,7.3515625 q -0.609375,0 -1.054688,0.25 -0.445312,0.25 -0.703125,0.578125 Q 61.125,8.6171875 61,9.140625 q -0.117188,0.5234375 -0.117188,2.273438 0,1.757812 0.117188,2.28125 0.125,0.523437 0.460937,0.945312 0.257813,0.34375 0.703125,0.59375 0.445313,0.242188 1.054688,0.242188 1.4375,0 2.179687,-1.554688 z"
       style="font-style:normal;font-variant:normal;font-weight:normal;font-stretch:normal;font-family:'Alte DIN 1451 Mittelschrift';-inkscape-font-specification:'Alte DIN 1451 Mittelschrift'"
       id="path828" />
    <path
       d="m 67.90625,13.039063 q 0,-1.304688 0.203125,-1.945313 Q 68.3125,10.453125 68.78125,9.9375 69.117187,9.5703125 69.703125,9.234375 70.296875,8.8984375 71.25,8.8984375 q 0.9375,0 1.53125,0.3359375 0.59375,0.3359375 0.929687,0.703125 0.46875,0.515625 0.671875,1.15625 0.203125,0.640625 0.203125,1.945313 0,1.328125 -0.203125,1.96875 -0.203125,0.640625 -0.671875,1.156249 -0.335937,0.375 -0.929687,0.703125 -0.59375,0.328125 -1.53125,0.328125 -0.953125,0 -1.546875,-0.328125 Q 69.117187,16.539062 68.78125,16.164062 68.3125,15.648438 68.109375,15.007813 67.90625,14.367188 67.90625,13.039063 Z m 5.054687,0.01563 q 0,-0.882813 -0.09375,-1.242188 Q 72.78125,11.453125 72.5625,11.125 72.132812,10.53125 71.25,10.53125 q -0.898438,0 -1.3125,0.59375 -0.234375,0.328125 -0.320313,0.6875 -0.07813,0.359375 -0.07813,1.226563 0,0.890625 0.07813,1.257812 0.08594,0.359375 0.320313,0.679688 0.414062,0.59375 1.3125,0.59375 0.882812,0 1.3125,-0.59375 0.21875,-0.320313 0.304687,-0.679688 0.09375,-0.359375 0.09375,-1.242187 z"
       style="font-style:normal;font-variant:normal;font-weight:normal;font-stretch:normal;font-family:'Alte DIN 1451 Mittelschrift';-inkscape-font-specification:'Alte DIN 1451 Mittelschrift'"
       id="path830" />
    <path
       d="M 76.398437,17.101562 V 8.9921875 H 78.03125 V 9.859375 h 0.03125 q 0.773437,-0.9609375 2.109375,-0.9609375 0.851562,0 1.351562,0.3046875 0.5,0.3046875 0.9375,0.75 0.960938,-1.0546875 2.5625,-1.0546875 0.945313,0 1.820313,0.71875 0.882812,0.7187505 0.882812,2.0937505 v 5.390624 H 86.09375 v -4.828124 q 0,-0.820313 -0.460938,-1.28125 -0.460937,-0.460938 -1.140625,-0.460938 -0.703125,0 -1.164062,0.460938 Q 82.875,11.453125 82.875,12.273438 v 4.828124 H 81.25 v -4.828124 q 0,-0.820313 -0.460938,-1.28125 -0.460937,-0.460938 -1.140625,-0.460938 -0.703125,0 -1.164062,0.460938 -0.453125,0.460937 -0.453125,1.28125 v 4.828124 z"
       style="font-style:normal;font-variant:normal;font-weight:normal;font-stretch:normal;font-family:'Alte DIN 1451 Mittelschrift';-inkscape-font-specification:'Alte DIN 1451 Mittelschrift'"
       id="path832" />
    <path
       d="M 89.929687,20.382812 V 8.9921875 H 91.5625 V 9.84375 q 0.851562,-0.9453125 2.09375,-0.9453125 0.742187,0 1.28125,0.3046875 0.539062,0.296875 0.890625,0.75 0.335937,0.4375 0.453125,1.023438 0.125,0.578125 0.125,2.078125 0,1.492187 -0.125,2.078125 -0.117188,0.585937 -0.453125,1.015624 -0.351563,0.460938 -0.890625,0.757813 -0.539063,0.289062 -1.28125,0.289062 -0.632813,0 -1.140625,-0.257812 -0.5,-0.257813 -0.953125,-0.695313 v 4.140625 z m 3.234375,-4.812499 q 1.148438,0 1.375,-0.789063 0.234375,-0.789062 0.234375,-1.726562 0,-0.9375 -0.234375,-1.726563 -0.226562,-0.796875 -1.375,-0.796875 -1.148437,0 -1.375,0.820313 -0.226562,0.820312 -0.226562,1.703125 0,0.882812 0.226562,1.703125 0.226563,0.8125 1.375,0.8125 z"
       style="font-style:normal;font-variant:normal;font-weight:normal;font-stretch:normal;font-family:'Alte DIN 1451 Mittelschrift';-inkscape-font-specification:'Alte DIN 1451 Mittelschrift'"
       id="path834" />
    <path
       d="m 102.53906,17.132812 v -0.71875 h -0.0312 q -0.22656,0.421875 -0.67968,0.609375 -0.48438,0.203125 -1.26563,0.203125 -1.34375,-0.03125 -2.03125,-0.71875 -0.75,-0.687499 -0.75,-1.757812 0,-1.015625 0.648437,-1.703125 0.648438,-0.6875 1.914063,-0.703125 h 2.19531 v -0.859375 q 0.008,-1.078125 -1.61718,-1.046875 -0.5625,0 -0.937505,0.125 -0.367188,0.164063 -0.554688,0.507813 l -1.25,-0.984375 Q 99.085937,8.875 100.84375,8.90625 q 1.47656,-0.015625 2.375,0.578125 0.88281,0.617188 0.89844,2.09375 v 5.554687 z m 0,-2.851562 V 13.6875 h -1.89843 q -1.39063,0.03906 -1.375005,0.984375 0,0.40625 0.359375,0.703125 0.34375,0.320313 1.13281,0.320313 1,0.01563 1.40625,-0.242188 0.375,-0.257812 0.375,-1.171875 z"
       style="font-style:normal;font-variant:normal;font-weight:normal;font-stretch:normal;font-family:'Alte DIN 1451 Mittelschrift';-inkscape-font-specification:'Alte DIN 1451 Mittelschrift'"
       id="path836" />
    <path
       d="M 105.92969,17.101562 V 8.9921875 h 1.63281 V 9.859375 h 0.0312 q 0.75781,-0.9609375 2.10938,-0.9609375 0.94531,0 1.82031,0.71875 0.88281,0.7187505 0.88281,2.0937505 v 5.390624 h -1.63281 v -4.828124 q 0,-0.820313 -0.46094,-1.28125 -0.45312,-0.460938 -1.13281,-0.460938 -0.70313,0 -1.16406,0.460938 -0.45313,0.460937 -0.45313,1.28125 v 4.828124 z"
       style="font-style:normal;font-variant:normal;font-weight:normal;font-stretch:normal;font-family:'Alte DIN 1451 Mittelschrift';-inkscape-font-specification:'Alte DIN 1451 Mittelschrift'"
       id="path838" />
    <path
       d="m 116.26563,16.789062 -2.90625,-7.7968745 h 1.71875 L 117,14.671875 h 0.0312 l 1.92188,-5.6796875 h 1.72656 l -3.48438,9.7890625 q -0.34375,0.9375 -0.94531,1.265625 -0.60156,0.335937 -1.34375,0.335937 h -0.54687 V 18.84375 h 0.48437 q 0.73438,0 0.97656,-0.703125 z"
       style="font-style:normal;font-variant:normal;font-weight:normal;font-stretch:normal;font-family:'Alte DIN 1451 Mittelschrift';-inkscape-font-specification:'Alte DIN 1451 Mittelschrift'"
       id="path840" />
  </g>
</svg>
