<?xml version="1.0" encoding="UTF-8" standalone="no"?>
<svg
   xmlns:dc="http://purl.org/dc/elements/1.1/"
   xmlns:cc="http://creativecommons.org/ns#"
   xmlns:rdf="http://www.w3.org/1999/02/22-rdf-syntax-ns#"
   xmlns:svg="http://www.w3.org/2000/svg"
   xmlns="http://www.w3.org/2000/svg"
   xmlns:sodipodi="http://sodipodi.sourceforge.net/DTD/sodipodi-0.dtd"
   xmlns:inkscape="http://www.inkscape.org/namespaces/inkscape"
   width="112"
   height="23"
   fill="none"
   version="1.1"
   id="svg6"
   sodipodi:docname="pandora-black.svg"
   inkscape:version="0.92.4 (5da689c313, 2019-01-14)">
  <metadata
     id="metadata12">
    <rdf:RDF>
      <cc:Work
         rdf:about="">
        <dc:format>image/svg+xml</dc:format>
        <dc:type
           rdf:resource="http://purl.org/dc/dcmitype/StillImage" />
        <dc:title></dc:title>
      </cc:Work>
    </rdf:RDF>
  </metadata>
  <defs
     id="defs10" />
  <sodipodi:namedview
     pagecolor="#ffffff"
     bordercolor="#666666"
     borderopacity="1"
     objecttolerance="10"
     gridtolerance="10"
     guidetolerance="10"
     inkscape:pageopacity="0"
     inkscape:pageshadow="2"
     inkscape:window-width="2554"
     inkscape:window-height="1434"
     id="namedview8"
     showgrid="true"
     inkscape:snap-text-baseline="true"
     inkscape:zoom="8.0559665"
     inkscape:cx="53.737255"
     inkscape:cy="11.484244"
     inkscape:window-x="0"
     inkscape:window-y="0"
     inkscape:window-maximized="0"
     inkscape:current-layer="text824">
    <inkscape:grid
       type="xygrid"
       id="grid826" />
  </sodipodi:namedview>
  <g
     aria-label="Solarnets"
     style="font-style:normal;font-variant:normal;font-weight:normal;font-stretch:normal;font-size:20px;line-height:20px;font-family:Exan;-inkscape-font-specification:Exan;font-variant-ligatures:normal;font-variant-caps:normal;font-variant-numeric:normal;text-align:start;letter-spacing:0px;word-spacing:0px;writing-mode:lr-tb;text-anchor:start;fill:#000000;fill-opacity:1;stroke:none"
     id="text824">
    <path
       d="m 4.34,16.98 v 0.54 q 0.06,1 0.32,1.5 0.08,0.12 0.44,0.3 0.38,0.16 1.12,0.3 0.74,0.14 1.82,0.14 h 0.22 0.22 q 0.4,0 0.86,-0.06 0.48,-0.06 0.66,-0.1 0.64,-0.12 0.96,-0.28 0.34,-0.16 0.42,-0.28 0.26,-0.38 0.36,-1.5 V 16.8 q -0.08,-1.04 -0.36,-1.48 0,-0.04 -0.32,-0.2 -0.3,-0.18 -1.04,-0.34 -0.74,-0.16 -1.98,-0.16 -0.88,0 -1.5,-0.08 Q 5.36,14.44 4.94,14.3 4.42,14.14 3.98,13.74 3.56,13.36 3.34,12.72 3.14,12.06 3.08,11 V 10.62 Q 3.14,9.56 3.34,8.92 3.56,8.26 3.98,7.88 4.4,7.54 4.94,7.34 5.4,7.18 6.26,7.1 7.14,7 8.04,7 q 0.88,0 1.74,0.1 0.88,0.08 1.36,0.24 0.58,0.22 0.92,0.52 0.44,0.38 0.64,1.02 0.22,0.64 0.26,1.7 v 0.26 H 11.74 V 10.46 Q 11.64,9.32 11.38,8.98 11.38,8.94 11.06,8.76 10.76,8.58 10.02,8.42 9.28,8.26 8.04,8.26 6.48,8.26 5.64,8.52 4.8,8.76 4.66,9 4.4,9.46 4.34,10.52 v 0.64 q 0.06,0.96 0.32,1.5 0.14,0.22 0.98,0.48 0.86,0.24 2.4,0.24 0.84,0 1.72,0.1 0.88,0.08 1.38,0.22 0.5,0.16 0.82,0.46 l 0.16,0.16 q 0.4,0.38 0.6,1 0.2,0.62 0.24,1.66 v 0.42 q -0.04,1.04 -0.24,1.66 -0.2,0.62 -0.6,1.02 L 12.08,20.14 12,20.2 q -0.06,0.08 -0.34,0.26 l -0.52,0.22 q -0.44,0.1 -0.64,0.14 -0.6,0.1 -0.94,0.12 -0.44,0.04 -0.68,0.04 H 8.82 Q 8.54,21 8.04,21 7.14,21 6.26,20.92 5.4,20.82 4.94,20.66 4.38,20.5 3.98,20.12 3.58,19.74 3.36,19.12 3.16,18.5 3.1,17.5 L 3.08,17.38 v -0.4 z"
       style=""
       id="path828" />
    <path
       d="m 15.952188,20.12 q -0.420001,-0.38 -0.64,-1.02 -0.2,-0.66 -0.26,-1.72 v -6.74 q 0.06,-1.08 0.26,-1.72 0.219999,-0.66 0.64,-1.04 0.399999,-0.36 0.939999,-0.54 0.46,-0.16 1.340001,-0.24 0.879999,-0.1 1.759999,-0.1 0.9,0 1.76,0.1 0.88,0.08 1.340001,0.24 0.519999,0.16 0.939999,0.52 0.42,0.38 0.62,1.02 0.220001,0.64 0.280001,1.72 v 6.8 q -0.06,1.08 -0.280001,1.72 -0.2,0.64 -0.62,1.02 -0.42,0.36 -0.939999,0.52 -0.460001,0.16 -1.340001,0.26 -0.86,0.08 -1.76,0.08 -0.88,0 -1.759999,-0.08 -0.880001,-0.1 -1.340001,-0.26 -0.54,-0.18 -0.939999,-0.54 z M 19.992187,8.24 q -1.439999,0 -2.44,0.28 l 5.92,10.26 q 0.18,-0.48 0.2,-1.22 v -7.1 q -0.06,-1.08 -0.32,-1.48 0,-0.04 -0.32,-0.22 -0.299999,-0.2 -1.04,-0.36 -0.74,-0.16 -2,-0.16 z m -3.48,1.02 q -0.14,0.4 -0.2,1.26 v 7 q 0.06,1 0.32,1.5 0.16,0.22 0.98,0.48 0.84,0.26 2.38,0.26 1.44,0 2.44,-0.28 z"
       style=""
       id="path830" />
    <path
       d="m 28.764375,17.52 q 0.1,1.16 0.32,1.48 0.14,0.24 0.98,0.5 0.84,0.26 2.4,0.26 h 4 V 21 h -4 q -0.92,0 -1.8,-0.08 -0.86,-0.08 -1.32,-0.24 -0.54,-0.16 -0.94,-0.56 -0.44,-0.4 -0.66,-1.02 -0.2,-0.64 -0.26,-1.72 V 7 h 1.28 z"
       style=""
       id="path832" />
    <path
       d="m 40.836562,9.86 -0.06,0.64 V 21 h -1.26 V 10.64 q 0.08,-1.5 0.5,-2.24 0.42,-0.74 1.36,-1.06 0.9,-0.34 2.6,-0.34 1.68,0 2.62,0.32 0.940001,0.34 1.34,1.06 0.420001,0.7 0.5,2.2 V 21 h -0.939999 z m 6.340001,8.46 v -7.88 q -0.1,-1.12 -0.32,-1.48 -0.4,-0.72 -2.880001,-0.72 -1.64,0 -2.42,0.34 z"
       style=""
       id="path834" />
    <path
       d="m 58.10875,15.04 2.78,5.96 h -1.38 l -2.72,-5.84 -4.44,0.02 V 21 h -1.28 V 7 h 4.2 q 2.18,0 3.2,0.24 1.02,0.22 1.5,1.08 0.48,0.86 0.48,2.76 0,1.86 -0.44,2.66 -0.44,0.8 -1.34,1.1 l -0.44,0.16 z m -1.18,-1.14 q 1.1,-0.06 1.6,-0.34 0.26,-0.16 0.46,-0.64 0.22,-0.48 0.22,-1.84 0,-2.14 -0.66,-2.46 -0.38,-0.22 -1.42,-0.32 l -4.78,-0.02 v 5.62 z"
       style=""
       id="path836" />
    <path
       d="m 63.640937,7 h 0.98 l 6.44,11.14 V 7 h 1.240001 V 21 H 71.320937 L 64.880938,9.84 V 21 h -1.240001 z"
       style=""
       id="path838" />
    <path
       d="m 77.473125,20.66 q -0.88,-0.3 -1.34,-1.1 -0.44,-0.82 -0.44,-2.66 v -5.82 q 0,-1.82 0.4,-2.66 0.42,-0.84 1.5,-1.12 1.1,-0.28 3.48,-0.3 h 3.14 v 1.28 h -4.92 l -0.26,0.02 q -0.98,0.08 -1.44,0.3 -0.64,0.36 -0.64,2.48 v 2.24 h 7.26 v 1.36 h -7.26 v 2.22 q 0,2.1 0.68,2.48 0.44,0.24 1.62,0.34 h 4.96 V 21 l -4.98,-0.02 -0.92,-0.08 -0.36,-0.08 z"
       style=""
       id="path840" />
    <path
       d="m 91.245312,8.36 h -4.28 V 7 h 9.960001 V 8.36 H 92.585312 V 21 h -1.34 z"
       style=""
       id="path842" />
    <path
       d="m 100.2775,16.98 v 0.54 q 0.06,1 0.32,1.5 0.08,0.12 0.44,0.3 0.38,0.16 1.12,0.3 0.74,0.14 1.82,0.14 h 0.22 0.22 q 0.4,0 0.86,-0.06 0.48,-0.06 0.66,-0.1 0.64,-0.12 0.96,-0.28 0.34,-0.16 0.42,-0.28 0.26,-0.38 0.36,-1.5 V 16.8 q -0.08,-1.04 -0.36,-1.48 0,-0.04 -0.32,-0.2 -0.3,-0.18 -1.04,-0.34 -0.74,-0.16 -1.98,-0.16 -0.88,0 -1.5,-0.08 -1.18,-0.1 -1.6,-0.24 -0.52,-0.16 -0.96,-0.56 -0.42,-0.38 -0.64,-1.02 -0.2,-0.66 -0.26,-1.72 v -0.38 q 0.06,-1.06 0.26,-1.7 0.22,-0.66 0.64,-1.04 0.42,-0.34 0.96,-0.54 0.46,-0.16 1.32,-0.24 0.88,-0.1 1.78,-0.1 0.88,0 1.74,0.1 0.88,0.08 1.36,0.24 0.58,0.22 0.92,0.52 0.44,0.38 0.64,1.02 0.22,0.64 0.26,1.7 v 0.26 h -1.22 v -0.38 q -0.1,-1.14 -0.36,-1.48 0,-0.04 -0.32,-0.22 -0.3,-0.18 -1.04,-0.34 -0.74,-0.16 -1.98,-0.16 -1.56,0 -2.4,0.26 -0.84,0.24 -0.98,0.48 -0.26,0.46 -0.32,1.52 v 0.64 q 0.06,0.96 0.32,1.5 0.14,0.22 0.98,0.48 0.86,0.24 2.4,0.24 0.84,0 1.72,0.1 0.88,0.08 1.38,0.22 0.5,0.16 0.82,0.46 l 0.16,0.16 q 0.4,0.38 0.6,1 0.2,0.62 0.24,1.66 v 0.42 q -0.04,1.04 -0.24,1.66 -0.2,0.62 -0.6,1.02 l -0.04,0.06 -0.08,0.06 q -0.06,0.08 -0.34,0.26 l -0.52,0.22 q -0.44,0.1 -0.64,0.14 -0.6,0.1 -0.94,0.12 -0.44,0.04 -0.68,0.04 h -0.06 q -0.28,0.02 -0.78,0.02 -0.9,0 -1.78,-0.08 -0.86,-0.1 -1.32,-0.26 -0.56,-0.16 -0.96,-0.54 -0.4,-0.38 -0.62,-1 -0.2,-0.62 -0.26,-1.62 l -0.02,-0.12 v -0.4 z"
       style=""
       id="path844" />
  </g>
</svg>
