<svg width="112" height="23" fill="none" xmlns="http://www.w3.org/2000/svg"><path d="M61.536 1.647C61.5.98 62.077.352 62.744.326c.497-.016.993-.001 1.49.001.004 5.854-.002 11.708.004 17.562a6.3 6.3 0 0 1-.037.484c-.888-.014-1.775-.004-2.663-.007a79.927 79.927 0 0 1-.004-1.16c-1.116.847-2.44 1.448-3.846 1.564-2.015.219-4.109-.453-5.603-1.826-1.536-1.369-2.46-3.42-2.396-5.484-.027-1.54.507-3.073 1.424-4.305 1.221-1.646 3.162-2.754 5.214-2.9 1.86-.183 3.742.433 5.207 1.575.003-1.394-.003-2.789.002-4.183zm-5.604 5.51c-1.746.458-3.119 2.05-3.302 3.848a4.495 4.495 0 0 0 1.217 3.622 4.504 4.504 0 0 0 3.492 1.407 4.53 4.53 0 0 0 3.359-1.788c.573-.764.92-1.708.913-2.667.047-1.537-.787-3.056-2.085-3.872-1.05-.676-2.39-.897-3.594-.55zM108.362.368c.623-.121 1.294-.039 1.843.29a2.517 2.517 0 0 1 1.247 2.239 2.494 2.494 0 0 1-.829 1.863c-.689.65-1.756.834-2.634.49-.995-.367-1.681-1.414-1.631-2.474.021-1.135.886-2.187 2.004-2.408zm-.006.347c-1.129.26-1.896 1.509-1.609 2.633.219 1.048 1.276 1.841 2.346 1.732a2.245 2.245 0 0 0 1.879-1.412c.324-.8.118-1.781-.505-2.38a2.215 2.215 0 0 0-2.111-.573z" fill="#000"/><path d="M107.936 1.394c.495.025 1.001-.056 1.49.051.556.142.788.88.474 1.343-.125.221-.373.311-.585.422.257.37.512.743.764 1.119l-.483-.006c-.253-.361-.467-.749-.733-1.1-.162-.072-.356-.024-.528-.041-.003.379-.005.756-.001 1.134l-.401.014c.002-.98-.004-1.957.003-2.936zm.404.343a30.62 30.62 0 0 0-.007 1.093c.412-.043.963.157 1.238-.262.228-.319-.046-.795-.419-.822-.271-.021-.543-.008-.812-.009zM2.983 5.837C4.405 4.71 6.235 4.102 8.052 4.244c1.878.104 3.692 1 4.938 2.406a7.193 7.193 0 0 1 1.815 4.147 7.265 7.265 0 0 1-1.652 5.4c-1.226 1.477-3.056 2.448-4.974 2.583-1.855.178-3.743-.426-5.196-1.582v4.19c.03.643-.495 1.246-1.131 1.317-.516.026-1.033 0-1.55.008.007-6.014 0-12.027.004-18.04.89-.009 1.78 0 2.671-.006.006.39.008.78.006 1.17zm3.528 1.25a4.559 4.559 0 0 0-2.746 1.774c-.798 1.085-1.076 2.543-.705 3.84a4.519 4.519 0 0 0 2.362 2.869 4.412 4.412 0 0 0 3.37.246c1.431-.447 2.573-1.667 2.967-3.11.483-1.678-.143-3.586-1.494-4.68-1.026-.853-2.446-1.22-3.754-.939zM18.58 6.423a7.198 7.198 0 0 1 4.816-2.184c1.776-.115 3.556.485 4.952 1.577-.004-.384-.022-.77.029-1.152.89.015 1.779-.003 2.669.01-.004 4.565.005 9.128-.005 13.693-.878.006-1.758-.017-2.636.013-.11-.38-.039-.777-.074-1.165a7.223 7.223 0 0 1-5.055 1.574c-1.79-.104-3.517-.93-4.746-2.23-1.206-1.239-1.918-2.927-2.013-4.65-.113-2.007.644-4.056 2.064-5.486zm4.404.679c-2.164.44-3.777 2.635-3.532 4.833a4.582 4.582 0 0 0 1.766 3.176c1.113.853 2.639 1.166 3.986.745a4.535 4.535 0 0 0 3.034-2.956c.608-1.788-.077-3.904-1.606-5.009-1.027-.768-2.393-1.082-3.648-.789zM39.651 4.275a7.252 7.252 0 0 1 4.228.79c2.398 1.247 3.98 3.908 3.872 6.617-.007 2.229.007 4.457-.008 6.686-.968-.003-1.938-.003-2.907 0-.015-2.302.002-4.603-.009-6.904-.001-1.645-1.033-3.225-2.53-3.9a4.312 4.312 0 0 0-3.63-.003 4.386 4.386 0 0 0-2.416 2.954c-.161.68-.113 1.382-.118 2.074-.005 1.926.007 3.853-.006 5.779-.969-.002-1.937-.003-2.906 0-.038-2.265-.005-4.53-.017-6.796a7.335 7.335 0 0 1 1.216-4.094c1.165-1.76 3.125-2.987 5.231-3.203zM72.175 4.328c1.439-.234 2.951-.057 4.277.56a7.326 7.326 0 0 1 3.595 3.626 7.37 7.37 0 0 1 .06 5.87 7.315 7.315 0 0 1-3.9 3.872 7.24 7.24 0 0 1-3.522.514c-1.8-.159-3.513-1.049-4.706-2.398a7.2 7.2 0 0 1-1.826-4.45 7.243 7.243 0 0 1 1.675-5.083 7.278 7.278 0 0 1 4.347-2.51zm.229 2.949c-1.736.405-3.136 1.97-3.306 3.75-.247 1.82.834 3.69 2.495 4.447a4.341 4.341 0 0 0 3.304.14 4.408 4.408 0 0 0 2.708-2.945c.161-.535.153-1.102.123-1.655-.153-1.484-1.15-2.833-2.5-3.454a4.367 4.367 0 0 0-2.824-.283zM84.17 6.604c1.489-1.633 3.767-2.332 5.927-2.352-.002.978.004 1.956-.003 2.934-1.24-.014-2.547.322-3.473 1.186-.817.753-1.172 1.888-1.173 2.975-.001 2.34.002 4.68-.002 7.02-.97.001-1.94-.009-2.91.007-.031-2.341-.003-4.684-.013-7.025-.007-1.7.476-3.471 1.646-4.745zM91.971 7.071C93.125 5.556 94.9 4.52 96.792 4.29c1.955-.271 3.986.313 5.527 1.54-.001-.386-.001-.773.001-1.158.901-.004 1.802 0 2.703-.003.007 4.566.005 9.132 0 13.698-.901-.001-1.801.001-2.702-.001-.002-.387-.005-.774-.003-1.16-1.416 1.125-3.244 1.724-5.051 1.586a7.176 7.176 0 0 1-4.006-1.523c-1.513-1.179-2.54-2.98-2.74-4.892a7.269 7.269 0 0 1 1.45-5.305zm4.979.029c-1.886.39-3.397 2.102-3.536 4.024-.14 1.412.456 2.861 1.524 3.79 1.075.958 2.629 1.358 4.027.996a4.552 4.552 0 0 0 2.72-1.937c.653-.997.886-2.26.621-3.423a4.531 4.531 0 0 0-2.262-3.005A4.443 4.443 0 0 0 96.95 7.1z" fill="#000"/></svg>