<svg width="122" height="15" fill="none" xmlns="http://www.w3.org/2000/svg"><path d="M59.247 8.12c1.307-.138 2.244-.763 2.772-1.872.433-.903 1.1-2.366 1.105-2.382.662-1.384.459-2.23.17-2.704-.431-.7-1.277-.949-1.92-.949h-6.551l-6.78 14.601h3.405l2.596-5.735h1.825a1.023 1.023 0 0 1 .774.43c.218.368.16.93-.184 1.671a49.042 49.042 0 0 0-1.476 3.64h3.453c.095-.483.236-.956.419-1.412a145.92 145.92 0 0 0 1.067-2.674c.66-1.636-.157-2.29-.675-2.615zm-.36-2.41c-.288.617-.731.93-1.321.93h-2.375l1.801-3.974h2.6a.462.462 0 0 1 .351.189c.104.173.067.462-.106.838l-.595 1.266-.355.751zM22.905 8.12c1.308-.141 2.239-.766 2.773-1.874.432-.903 1.099-2.366 1.107-2.382.662-1.385.459-2.23.17-2.704-.431-.69-1.277-.938-1.923-.938h-6.559l-6.78 14.6h3.413l2.596-5.734h1.828a1.023 1.023 0 0 1 .774.43c.221.367.16.93-.184 1.67a49.042 49.042 0 0 0-1.476 3.64h3.453c.094-.483.234-.955.416-1.412a145.92 145.92 0 0 0 1.067-2.674c.662-1.644-.157-2.298-.675-2.622zm-.36-2.412c-.288.619-.73.92-1.318.92h-2.375l1.852-3.976h2.546a.462.462 0 0 1 .352.19c.104.173.067.462-.107.838L22.9 4.945l-.355.763zM38.894 3.853c1.192-2.59-.158-3.715-1.876-3.715h-4.136c-1.74 0-2.967.832-3.757 2.544a473.9 473.9 0 0 1-1.95 4.161l-1.73 3.694c-1.736 3.704.862 4.326 2.135 4.326h2.612c2.618.027 3.907-.722 4.918-2.858.678-1.428 1.617-3.466 2.615-5.627l1.169-2.525zm-3.397-.411l-3.469 7.487c-.483 1.033-.8 1.208-1.55 1.208h-1.5c-.267 0-.8-.073-.4-.957.582-1.27 3.02-6.597 3.52-7.668.338-.73.69-.876 1.15-.876h1.867c.355-.016.673.181.382.806zM44.566 6.716L43.435 9.15h1.793l-1.009 2.209c-.293.64-.493.77-1.184.77h-1.783c-.533 0-.72-.27-.4-.957.406-.87 3.608-7.646 3.608-7.646.362-.771.578-.887 1.139-.887h1.84c.447 0 .687.208.388.81-.067.133-.8 1.758-.8 1.758l3.247.025.739-1.609c1.08-2.352.114-3.453-2.122-3.485h-3.527a4.227 4.227 0 0 0-2.38.66 4.31 4.31 0 0 0-1.622 1.884c-.643 1.387-3.677 7.855-3.677 7.855-1.11 2.366-.467 4.326 2.57 4.326h2.71c2.167.021 3.231-.322 4.221-2.517l2.527-5.61-5.147-.02zM93.513.176l-6.788 14.622h3.498L97.053.176h-3.54zM97.803 13.06L101.811.177h-3.669l-3.362 14.62h4.734l9.891-14.62h-3.68L97.803 13.06zM78.63 9.726l-.294-5.408c-.035-.652.122-1.536 1.299-1.536h2.364L83.213.176h-4.029c-3.202 0-4.27 1.976-4.154 4.299.074 1.42.266 6.037.266 6.037.048 1.114-.373 1.623-1.4 1.623H71.2l-1.21 2.652h4.297c2.85.016 4.528-1.868 4.341-5.061zM86.391 4.323c-.035-.651.123-1.536 1.3-1.536h2.364L91.269.181h-4.03c-2.646 0-4.306 1.465-4.154 4.299.078 1.42.267 6.038.267 6.038.05 1.114-.371 1.622-1.4 1.622h-2.626l-1.21 2.652h4.227c3.133 0 4.504-2.27 4.339-5.077l-.29-5.392zM66.617 8.263h4.378l1.124-2.434h-4.395l1.398-3.033h4.536l1.19-2.593h-7.903l-6.743 14.6h8.539l1.23-2.647h-5.18l1.826-3.893zM103.825 14.8h8.539l1.241-2.644h-5.19l1.825-3.893h4.379l1.123-2.434h-4.395l1.398-3.033h4.536l1.188-2.593h-7.901L103.825 14.8zM13.59 7.203c.286-.598.852-1.836 1.495-3.274 1.128-2.531-.267-3.702-1.748-3.707H6.858L.134 14.844H3.63l2.348-5.121h3.405c2.18.016 3.319-.662 4.207-2.52zm-1.803-3.39c-.63 1.351-1.11 2.363-1.164 2.473-.282.611-.688.882-1.3.882H7.132l2.073-4.55h2.198c.483.002.828.248.385 1.194zM121.295 1.195a.33.33 0 0 0-.147-.287.602.602 0 0 0-.32-.065h-.571v1.33h.16V1.56h.293l.376.614h.19l-.395-.614c.232-.006.414-.103.414-.365zm-.627.238h-.246V.949h.376c.163 0 .342.024.342.23-.008.283-.294.254-.472.254z" fill="#000"/><path d="M120.694.319c-.232 0-.46.069-.653.2a1.19 1.19 0 0 0-.501 1.221c.045.231.157.443.321.61a1.16 1.16 0 0 0 1.281.257c.215-.09.398-.243.527-.44a1.204 1.204 0 0 0-.147-1.5 1.167 1.167 0 0 0-.828-.348zm0 2.236a1.02 1.02 0 0 1-.571-.18c-.169-.116-.3-.28-.377-.472a1.051 1.051 0 0 1 .229-1.138 1.018 1.018 0 0 1 1.124-.223c.188.08.349.214.462.386a1.058 1.058 0 0 1-.469 1.552 1.016 1.016 0 0 1-.398.078v-.003z" fill="#000"/></svg>