<svg width="128" height="25" fill="none" xmlns="http://www.w3.org/2000/svg"><path d="M.405 16.293l2.252-1.352c.732 1.464 2.084 2.309 3.66 2.309 1.352 0 2.365-.507 2.365-1.52 0-1.014-.957-1.465-2.703-1.971-2.477-.62-5.011-1.24-5.011-4.055 0-2.533 1.97-3.997 4.842-3.997 2.76 0 4.393 1.351 5.35 2.759l-2.084 1.576C8.344 8.916 7.05 8.128 5.754 8.128c-1.239 0-1.97.563-1.97 1.351 0 1.07 1.013 1.464 2.758 1.971 2.365.62 4.9 1.408 4.9 4.167 0 2.14-1.634 4.11-5.406 4.11-2.816-.112-4.618-1.463-5.631-3.434zM12.06 19.39l4.786-13.515h2.816l4.786 13.515h-2.985l-1.013-2.985H15.89l-1.014 2.985h-2.815zm4.505-5.18h3.153l-1.52-4.562h-.057l-1.576 4.561zm9.347 5.18V5.932h4.899c2.871 0 5.518.788 5.518 4.336 0 3.603-2.816 4.392-5.518 4.392h-1.915v4.786h-2.984v-.056zm2.928-7.095h2.027c1.858 0 2.534-.732 2.534-2.027 0-1.24-.676-1.971-2.534-1.971h-2.027v3.998zm12.67 7.095l4.73-13.515h2.815l4.73 13.515H50.8l-1.013-2.816h-4.561l-1.014 2.816H41.51zm4.448-5.068h3.153l-1.52-4.505h-.057l-1.576 4.505zm9.572 5.068V9.817h2.816v1.69h-.113c.507-1.127 1.464-2.253 3.266-2.253h.113l-.057 2.703h-.732c-1.182 0-1.97.676-2.533 1.408v6.025h-2.76zm7.884-11.262V5.875h2.815v2.253h-2.815zm0 11.262V9.817h2.815v9.573h-2.815zm7.883-1.183v1.183h-2.816V5.875h2.816v5.293c.563-.9 1.576-1.689 2.984-1.689 2.196 0 3.717 1.69 3.717 5.012 0 3.322-1.577 5.011-3.773 5.011-1.239 0-2.365-.506-2.928-1.295zm3.829-3.716c0-1.633-.62-2.647-1.915-2.647-.732 0-1.351.45-1.914.958v3.547c.563.62 1.182.9 1.97.9 1.24.057 1.859-.956 1.859-2.758zm4.054 2.365c0-2.253 1.69-3.491 6.194-3.83v-.168c0-.732-.394-1.183-1.351-1.183-1.24 0-2.309.507-3.21 1.183l-1.239-1.69c.958-.844 2.422-1.745 4.843-1.745 2.646 0 3.773 1.295 3.773 3.773v3.716c0 1.183 0 1.802.225 2.365h-2.928c-.113-.563-.225-.9-.225-1.408-.901 1.014-1.915 1.577-3.323 1.577-1.464.056-2.759-.901-2.759-2.59zm6.194-.394V14.66c-2.252.225-3.322.788-3.322 1.689 0 .62.45.9 1.07.9 1.07.057 1.689-.28 2.252-.787zM123.328 24.007L110.602.469h2.815c.564 0 1.014.282 1.239.733l12.726 23.537h-2.815c-.507 0-1.014-.282-1.239-.732zm-23.875.732h2.815c.563 0 1.014-.282 1.239-.732l3.491-6.42-1.802-3.378-5.743 10.53zm-5.462 0c.563 0 1.013-.282 1.239-.732l9.91-18.3 9.91 18.3c.226.45.676.732 1.239.732h2.816L106.379 1.2c-.225-.45-.676-.732-1.239-.732-.507 0-1.014.282-1.239.733L91.175 24.738h2.816z" fill="#000"/></svg>